<?xml version="1.0" encoding="UTF-8"?>
<svg enable-background="new 0 0 512 512" version="1.1" viewBox="0 0 512 512" xml:space="preserve" xmlns="http://www.w3.org/2000/svg">
			<path d="m315.73 221.87h-119.47c-4.71 0-8.533 3.823-8.533 8.533s3.823 8.533 8.533 8.533h119.47c4.719 0 8.533-3.823 8.533-8.533s-3.815-8.533-8.534-8.533z"/>
			<path d="m486.4 136.53h-17.067c-3.371 0-6.579 0.691-9.515 1.877-2.961-10.88-12.817-18.944-24.619-18.944h-17.067c-3.371 0-6.579 0.691-9.515 1.877-2.959-10.879-12.815-18.943-24.617-18.943h-17.067c-14.114 0-25.6 11.486-25.6 25.6v256c0 14.114 11.486 25.6 25.6 25.6h17.067c11.802 0 21.658-8.064 24.619-18.944 2.935 1.186 6.144 1.877 9.515 1.877h17.066c14.114 0 25.6-11.486 25.6-25.6v-10.112c2.679 0.964 5.521 1.579 8.533 1.579h17.067c14.114 0 25.6-11.486 25.6-25.6v-170.67c0-14.114-11.486-25.6-25.6-25.6zm-93.867 8.534v238.93c0 4.702-3.823 8.533-8.533 8.533h-17.067c-4.71 0-8.533-3.831-8.533-8.533v-256c0-4.702 3.823-8.533 8.533-8.533h17.067c4.71 0 8.533 3.831 8.533 8.533v17.067zm51.2 17.066v204.8c0 4.702-3.823 8.533-8.533 8.533h-17.067c-4.71 0-8.533-3.831-8.533-8.533v-221.87c0-4.702 3.823-8.533 8.533-8.533h17.067c4.71 0 8.533 3.831 8.533 8.533v17.066zm51.2 170.67c0 4.702-3.823 8.533-8.533 8.533h-17.067c-4.71 0-8.533-3.831-8.533-8.533v-170.67c0-4.702 3.823-8.533 8.533-8.533h17.067c4.71 0 8.533 3.831 8.533 8.533v170.67z"/>
			<path d="m145.07 102.4h-17.067c-11.802 0-21.666 8.064-24.61 18.944-2.953-1.186-6.153-1.877-9.523-1.877h-17.067c-14.114 0-25.6 11.486-25.6 25.6v10.103c-2.68-0.956-5.521-1.57-8.533-1.57h-17.067c-14.114 0-25.6 11.486-25.6 25.6v170.67c0 14.114 11.486 25.6 25.6 25.6h17.067c3.371 0 6.571-0.691 9.523-1.877 2.944 10.88 12.809 18.944 24.61 18.944h17.067c3.371 0 6.571-0.691 9.523-1.877 2.944 10.88 12.809 18.944 24.61 18.944h17.067c14.114 0 25.6-11.486 25.6-25.6v-256c0-14.114-11.486-25.6-25.6-25.6zm-93.867 247.47c0 4.702-3.831 8.533-8.533 8.533h-17.067c-4.702 0-8.533-3.831-8.533-8.533v-170.67c0-4.702 3.831-8.533 8.533-8.533h17.067c4.702 0 8.533 3.831 8.533 8.533v170.67zm51.2 17.066c0 4.702-3.831 8.533-8.533 8.533h-17.067c-4.702 0-8.533-3.831-8.533-8.533v-221.87c0-4.702 3.831-8.533 8.533-8.533h17.067c4.702 0 8.533 3.831 8.533 8.533v221.87zm51.2 17.067c0 4.702-3.831 8.533-8.533 8.533h-17.067c-4.702 0-8.533-3.831-8.533-8.533v-256c0-4.702 3.831-8.533 8.533-8.533h17.067c4.702 0 8.533 3.831 8.533 8.533v256z"/>
			<path d="m315.73 273.07h-119.47c-4.71 0-8.533 3.823-8.533 8.533s3.823 8.533 8.533 8.533h119.47c4.719 0 8.533-3.823 8.533-8.533s-3.815-8.533-8.534-8.533z"/>
</svg>
