<?xml version="1.0" encoding="utf-8"?>
<!-- Generator: Adobe Illustrator 16.0.0, SVG Export Plug-In . SVG Version: 6.00 Build 0)  -->
<!DOCTYPE svg PUBLIC "-//W3C//DTD SVG 1.1//EN" "http://www.w3.org/Graphics/SVG/1.1/DTD/svg11.dtd">
<svg version="1.1" id="Layer_1" xmlns="http://www.w3.org/2000/svg" xmlns:xlink="http://www.w3.org/1999/xlink" x="0px" y="0px"
	 width="145.748px" height="40.447px" viewBox="0 0 145.748 40.447" enable-background="new 0 0 145.748 40.447"
	 xml:space="preserve">
<g>
	<g>
		<circle fill="#FFFFFF" cx="57.839" cy="35.105" r="4.549"/>
		<path fill="#FFFFFF" d="M64.668,26.507c-0.019-0.047-0.046-0.079-0.067-0.121c-0.015-0.057-0.031-0.117-0.05-0.188
			c-0.036-0.146-0.13-0.441-0.234-0.751c-0.104-0.327-0.23-0.637-0.373-1.008c-0.3-0.728-0.688-1.605-1.249-2.547
			c-0.559-0.943-1.27-1.962-2.161-2.979c-0.887-1.022-1.977-2.027-3.252-2.93c-0.636-0.457-1.327-0.878-2.062-1.257
			c-0.731-0.384-1.514-0.723-2.331-1.009c-0.814-0.286-1.672-0.507-2.555-0.661c-0.878-0.16-1.787-0.249-2.7-0.253
			c-0.912-0.008-1.832,0.047-2.736,0.197c-0.229,0.029-0.453,0.072-0.677,0.12l-0.337,0.068l-0.167,0.035l-0.178,0.042l-0.067,0.019
			c-0.372,0.101-0.698,0.18-1.17,0.328c-0.447,0.132-0.856,0.276-1.262,0.423c-0.406,0.15-0.81,0.318-1.209,0.49
			c-0.798,0.351-1.576,0.755-2.322,1.204c-1.485,0.913-2.836,2.017-3.967,3.244c-1.132,1.224-2.05,2.557-2.755,3.881
			c-0.707,1.327-1.216,2.641-1.572,3.868c-0.358,1.229-0.581,2.366-0.719,3.374c-0.134,1.008-0.214,1.885-0.236,2.603
			c-0.028,0.721-0.03,1.284-0.02,1.667c0.006,0.382,0.011,0.585,0.011,0.585c0.026,1.181,0.956,2.164,2.152,2.23
			c1.256,0.07,2.332-0.893,2.4-2.15l0.004-0.081c0,0,0.01-0.174,0.028-0.501c0.016-0.328,0.052-0.804,0.121-1.403
			c0.06-0.602,0.169-1.323,0.33-2.135c0.164-0.81,0.4-1.704,0.738-2.639c0.34-0.929,0.78-1.894,1.342-2.838
			c0.564-0.941,1.267-1.85,2.105-2.667c0.834-0.819,1.813-1.534,2.897-2.128c0.548-0.288,1.108-0.564,1.702-0.794
			c0.298-0.115,0.596-0.227,0.903-0.325c0.309-0.1,0.617-0.196,0.898-0.266c0.252-0.076,0.664-0.164,1.023-0.247l0.361-0.055
			c0.147-0.025,0.293-0.046,0.44-0.056c0.586-0.068,1.173-0.07,1.748-0.035c0.576,0.03,1.144,0.119,1.696,0.248
			c0.549,0.126,1.085,0.294,1.597,0.504c1.028,0.397,1.975,0.948,2.803,1.566c0.837,0.613,1.548,1.306,2.156,1.989
			c0.605,0.686,1.095,1.377,1.478,2.018c0.384,0.642,0.681,1.222,0.897,1.712c0.104,0.244,0.207,0.476,0.263,0.639
			c0.063,0.178,0.123,0.291,0.183,0.487c0.111,0.338,0.172,0.517,0.172,0.517c0.523,1.562,2.185,2.471,3.797,2.037
			c0.031-0.01,0.064-0.021,0.098-0.033c0.061,0.196,0.121,0.389,0.18,0.587c0.673,2.307,1.131,4.81,0.8,7.212
			c-0.292,2.108,2.932,3.021,3.228,0.89C67.386,34.9,66.375,30.488,64.668,26.507z"/>
	</g>
</g>
<g>
	<path fill="#FFFFFF" d="M3.757,39.839V16.797H0v-3.702h3.757v-1.437C3.757,4.586,7.902,0,15.417,0c2.486,0,5.415,0.773,6.796,1.768
		L20.832,5.47c-1.16-0.829-3.26-1.547-5.636-1.547c-5.138,0-6.631,3.592-6.631,7.847v1.326h15.527v26.744h-4.808V16.797H8.564
		v23.042H3.757z"/>
	<path fill="#FFFFFF" d="M95.959,0.607v32.324c0,2.377,0.057,5.084,0.222,6.908h-4.366l-0.221-4.643h-0.11
		c-1.491,2.985-4.752,5.25-9.116,5.25c-6.466,0-11.438-5.47-11.438-13.592c-0.057-8.896,5.47-14.367,11.99-14.367
		c4.088,0,6.853,1.934,8.066,4.088h0.111V0.607H95.959z M91.098,23.981c0-0.608-0.057-1.437-0.222-2.045
		c-0.718-3.094-3.371-5.636-7.018-5.636c-5.027,0-8.011,4.42-8.011,10.333c0,5.416,2.651,9.891,7.901,9.891
		c3.259,0,6.243-2.156,7.127-5.802c0.165-0.663,0.222-1.327,0.222-2.1V23.981z"/>
	<path fill="#FFFFFF" d="M104.525,39.839V16.797h-3.756v-3.702h3.756v-1.437C104.525,4.586,108.67,0,116.184,0
		c2.486,0,5.415,0.773,6.797,1.768l-1.382,3.703c-1.161-0.829-3.259-1.547-5.637-1.547c-5.137,0-6.63,3.592-6.63,7.847v1.326h15.527
		v26.744h-4.809V16.797h-10.719v23.042H104.525z"/>
	<path fill="#FFFFFF" d="M138.786,5.415v7.681h6.962v3.702h-6.962v14.422c0,3.315,0.938,5.194,3.646,5.194
		c1.271,0,2.21-0.167,2.818-0.332l0.221,3.647c-0.938,0.388-2.432,0.662-4.311,0.662c-2.264,0-4.089-0.717-5.248-2.044
		c-1.382-1.436-1.879-3.812-1.879-6.96V16.797h-4.146v-3.702h4.146v-6.41L138.786,5.415z"/>
</g>
</svg>
